<svg xmlns="http://www.w3.org/2000/svg" width="18.277" height="14.361" viewBox="0 0 18.277 14.361"><defs><style>.a{fill:#fff;}</style></defs><path class="a" d="M5.222,139.423v1.958a.975.975,0,0,1-.979.979H.979a.944.944,0,0,1-.694-.286A.944.944,0,0,1,0,141.382v-1.958a.944.944,0,0,1,.286-.694.944.944,0,0,1,.694-.286H4.243a.975.975,0,0,1,.979.979Zm0-5.222v1.958a.975.975,0,0,1-.979.979H.979a.944.944,0,0,1-.694-.286A.944.944,0,0,1,0,136.16V134.2a.944.944,0,0,1,.286-.694.944.944,0,0,1,.694-.286H4.243a.975.975,0,0,1,.979.979Zm6.528,5.222v1.958a.975.975,0,0,1-.979.979H7.507a.975.975,0,0,1-.979-.979v-1.958a.975.975,0,0,1,.979-.979h3.264a.975.975,0,0,1,.979.979ZM5.222,128.979v1.958a.975.975,0,0,1-.979.979H.979a.944.944,0,0,1-.694-.286A.944.944,0,0,1,0,130.937v-1.958a.944.944,0,0,1,.286-.694A.944.944,0,0,1,.979,128H4.243a.975.975,0,0,1,.979.979ZM11.75,134.2v1.958a.975.975,0,0,1-.979.979H7.507a.975.975,0,0,1-.979-.979V134.2a.975.975,0,0,1,.979-.979h3.264a.975.975,0,0,1,.979.979Zm6.528,5.222v1.958a.975.975,0,0,1-.979.979H14.034a.975.975,0,0,1-.979-.979v-1.958a.975.975,0,0,1,.979-.979H17.3a.975.975,0,0,1,.979.979ZM11.75,128.979v1.958a.975.975,0,0,1-.979.979H7.507a.975.975,0,0,1-.979-.979v-1.958A.975.975,0,0,1,7.507,128h3.264a.975.975,0,0,1,.979.979Zm6.528,5.222v1.958a.975.975,0,0,1-.979.979H14.034a.975.975,0,0,1-.979-.979V134.2a.975.975,0,0,1,.979-.979H17.3a.975.975,0,0,1,.979.979Zm0-5.222v1.958a.975.975,0,0,1-.979.979H14.034a.975.975,0,0,1-.979-.979v-1.958a.975.975,0,0,1,.979-.979H17.3a.975.975,0,0,1,.979.979Z" transform="translate(0 -128)"/></svg>