<svg xmlns="http://www.w3.org/2000/svg" width="16" height="15.26" viewBox="0 0 16 15.26"><defs><style>.a{fill:#fff;}</style></defs><path class="a" d="M80,37.913a.7.7,0,0,1-.25.462l-3.49,3.4.827,4.808a1.452,1.452,0,0,1,.01.192.566.566,0,0,1-.1.341.34.34,0,0,1-.293.139.778.778,0,0,1-.385-.115L72,44.875l-4.317,2.269a.817.817,0,0,1-.385.115.35.35,0,0,1-.3-.139.566.566,0,0,1-.1-.341,1.56,1.56,0,0,1,.019-.192l.827-4.808-3.5-3.4a.733.733,0,0,1-.24-.462q0-.356.538-.442l4.827-.7,2.163-4.375Q71.712,32,72,32t.471.394l2.163,4.375,4.827.7Q80,37.558,80,37.913Z" transform="translate(-64 -32)"/></svg>