<svg xmlns="http://www.w3.org/2000/svg" width="134.069" height="43.482" viewBox="0 0 134.069 43.482"><defs><style>.a{fill:#fff;}</style></defs><g transform="translate(0)"><g transform="translate(41.699 4.893)"><path class="a" d="M94.154,13.809a2.4,2.4,0,0,1-2.377,2.423A2.427,2.427,0,0,1,89.4,13.809v-.932A2.387,2.387,0,0,1,91.777,10.5a2.357,2.357,0,0,1,2.377,2.377Zm0,7.969v17.1a2.357,2.357,0,0,1-2.377,2.377A2.387,2.387,0,0,1,89.4,38.882v-17.1a2.368,2.368,0,0,1,2.377-2.423A2.34,2.34,0,0,1,94.154,21.778Z" transform="translate(-89.4 -10.5)"/><path class="a" d="M107.521,45.059a2.324,2.324,0,0,1,3.309-.373,7.908,7.908,0,0,0,4.847,1.911,5.642,5.642,0,0,0,2.983-.839,1.832,1.832,0,0,0,.792-1.3.5.5,0,0,0-.14-.419,1.2,1.2,0,0,0-.559-.513,9.848,9.848,0,0,0-3.5-1.212h-.047a19.192,19.192,0,0,1-3.822-1.119,7.238,7.238,0,0,1-3.029-2.563,5.519,5.519,0,0,1-.746-2.75,6.154,6.154,0,0,1,2.61-4.847,9.267,9.267,0,0,1,5.406-1.631,11.136,11.136,0,0,1,6.571,2.423,2.424,2.424,0,0,1,.7,3.262,2.318,2.318,0,0,1-3.262.606,7.364,7.364,0,0,0-4.055-1.631,4.45,4.45,0,0,0-2.61.792,1.33,1.33,0,0,0-.7,1.025.5.5,0,0,0,.093.373,1.042,1.042,0,0,0,.466.419,9.715,9.715,0,0,0,3.216,1.072l.047.047h.047a17.449,17.449,0,0,1,4.1,1.258,6.716,6.716,0,0,1,3.122,2.61,5.779,5.779,0,0,1,.839,2.889,6.262,6.262,0,0,1-2.75,5.08A9.8,9.8,0,0,1,115.77,51.4a12.95,12.95,0,0,1-7.83-3.029A2.336,2.336,0,0,1,107.521,45.059Z" transform="translate(-98.806 -20.592)"/><path class="a" d="M149.4,40.4a11.139,11.139,0,0,1,11.138-11,11.742,11.742,0,0,1,6.991,2.423A2.413,2.413,0,0,1,168,35.086a2.336,2.336,0,0,1-3.309.419,6.938,6.938,0,0,0-4.148-1.4,6.317,6.317,0,1,0,0,12.63,6.938,6.938,0,0,0,4.148-1.4A2.436,2.436,0,0,1,168,45.8a2.475,2.475,0,0,1-.466,3.262,12.084,12.084,0,0,1-6.991,2.33A11.2,11.2,0,0,1,149.4,40.4Z" transform="translate(-121.437 -20.592)"/><path class="a" d="M214.065,40.332v8.156A10.582,10.582,0,0,1,203.533,59.02a9.649,9.649,0,0,1-4.614-1.118,2.356,2.356,0,0,1-1.072-3.169,2.414,2.414,0,0,1,3.169-1.119,5.572,5.572,0,0,0,2.517.606,5.846,5.846,0,0,0,5.732-4.707,10.044,10.044,0,0,1-13.189-1.585A11.076,11.076,0,0,1,193,40.192a11.525,11.525,0,0,1,3.076-7.83,10.429,10.429,0,0,1,7.457-3.262,9.805,9.805,0,0,1,5.872,1.864,2.356,2.356,0,0,1,4.66.466v8.9Zm-4.707-.047a6.754,6.754,0,0,0-1.678-4.474,5.487,5.487,0,0,0-4.148-1.864,5.366,5.366,0,0,0-4.055,1.864,6.381,6.381,0,0,0-1.771,4.474,6.25,6.25,0,0,0,1.771,4.521,5.483,5.483,0,0,0,4.055,1.818,5.373,5.373,0,0,0,4.148-1.818A6.519,6.519,0,0,0,209.358,40.285Z" transform="translate(-144.718 -20.432)"/><path class="a" d="M245.629,48.082a11.041,11.041,0,0,1-3.029-7.736,11.223,11.223,0,0,1,3.029-7.69,10.285,10.285,0,0,1,7.55-3.356,9.547,9.547,0,0,1,7.317,3.356,11.055,11.055,0,0,1,3.076,7.69,10.761,10.761,0,0,1-3.076,7.736,9.779,9.779,0,0,1-7.317,3.356A10.285,10.285,0,0,1,245.629,48.082Zm1.724-7.736a7.138,7.138,0,0,0,1.585,4.66,5.919,5.919,0,0,0,4.194,1.631,5.747,5.747,0,0,0,4.055-1.631,6.606,6.606,0,0,0,1.724-4.66,6.535,6.535,0,0,0-1.724-4.567,5.908,5.908,0,0,0-8.249,0A7.232,7.232,0,0,0,247.354,40.345Z" transform="translate(-171.202 -20.538)"/></g><g transform="translate(0 0.302)"><path class="a" d="M.659,4.774a2.338,2.338,0,0,1,0-3.4,2.476,2.476,0,0,1,3.449-.047L35.8,33.016a2.433,2.433,0,0,1-.047,3.449,2.338,2.338,0,0,1-3.4,0Z" transform="translate(0.075 -0.649)"/></g><g transform="translate(31.679)"><path class="a" d="M72.793,30.2V2.423A2.447,2.447,0,0,0,70.323,0,2.407,2.407,0,0,0,67.9,2.423V25.353Z" transform="translate(-67.9)"/></g></g></svg>