<svg xmlns="http://www.w3.org/2000/svg" width="17.869" height="16.38" viewBox="0 0 17.869 16.38"><defs><style>.a{fill:#fff;}</style></defs><path class="a" d="M132.1,269.4v1.489H128V269.4Zm4.1-1.489a.755.755,0,0,1,.745.745v2.978a.755.755,0,0,1-.745.745h-2.978a.755.755,0,0,1-.745-.745v-2.978a.755.755,0,0,1,.745-.745Zm1.861-4.467v1.489H128v-1.489Zm-7.446-5.956v1.489H128v-1.489ZM145.869,269.4v1.489h-8.562V269.4ZM134.7,256a.755.755,0,0,1,.745.745v2.978a.755.755,0,0,1-.745.745h-2.978a.755.755,0,0,1-.745-.745v-2.978a.755.755,0,0,1,.745-.745Zm7.446,5.956a.755.755,0,0,1,.745.745v2.978a.755.755,0,0,1-.745.745h-2.978a.755.755,0,0,1-.745-.745V262.7a.755.755,0,0,1,.745-.745Zm3.723,1.489v1.489h-2.606v-1.489Zm0-5.956v1.489H135.818v-1.489Z" transform="translate(-128 -256)"/></svg>