<svg xmlns="http://www.w3.org/2000/svg" width="16" height="20" viewBox="0 0 16 20"><defs><style>.a{fill:#fff;}</style></defs><path class="a" d="M144,49.091a1.655,1.655,0,0,1-.7,1.29,5.289,5.289,0,0,1-1.864.92,16.03,16.03,0,0,1-2.557.523,23.645,23.645,0,0,1-5.761,0,16.03,16.03,0,0,1-2.557-.523,5.289,5.289,0,0,1-1.864-.92,1.655,1.655,0,0,1-.7-1.29,1.529,1.529,0,0,1,.375-1.006,2.931,2.931,0,0,1,1.034-.756,9.431,9.431,0,0,1,1.341-.506,13.159,13.159,0,0,1,1.489-.335.727.727,0,1,1,.25,1.432,11.987,11.987,0,0,0-1.2.267,7.689,7.689,0,0,0-.869.29,5.048,5.048,0,0,0-.551.267,1.434,1.434,0,0,0-.312.222.392.392,0,0,0-.1.136q.034.125.307.3a4.222,4.222,0,0,0,.83.375,11.723,11.723,0,0,0,1.3.369,15.448,15.448,0,0,0,1.824.284,23.126,23.126,0,0,0,4.58,0,15.447,15.447,0,0,0,1.824-.284,10.888,10.888,0,0,0,1.3-.375,4.408,4.408,0,0,0,.83-.381q.273-.176.307-.312a.32.32,0,0,0-.1-.125,2.044,2.044,0,0,0-.312-.216,3.958,3.958,0,0,0-.551-.267,8.733,8.733,0,0,0-.869-.284,11.987,11.987,0,0,0-1.2-.267.727.727,0,1,1,.25-1.432,13.159,13.159,0,0,1,1.489.335,9.431,9.431,0,0,1,1.341.506,2.931,2.931,0,0,1,1.034.756A1.529,1.529,0,0,1,144,49.091Zm-4.364-10.182v4.364a.737.737,0,0,1-.727.727h-.727v4.364a.737.737,0,0,1-.727.727h-2.909a.737.737,0,0,1-.727-.727V44h-.727a.737.737,0,0,1-.727-.727V38.909a1.455,1.455,0,0,1,1.455-1.455h4.364a1.455,1.455,0,0,1,1.455,1.455Zm-1.091-4.364a2.541,2.541,0,1,1-.744-1.8A2.453,2.453,0,0,1,138.545,34.545Z" transform="translate(-128 -32)"/></svg>