<svg xmlns="http://www.w3.org/2000/svg" width="35" height="35" viewBox="0 0 35 35"><defs><style>.a{fill:#fff;}</style></defs><path class="a" d="M17.5,0a17.107,17.107,0,0,1,6.8,1.387A17.195,17.195,0,0,1,33.613,10.7a17.359,17.359,0,0,1,.01,13.574A17.448,17.448,0,0,1,29.9,29.863a17.714,17.714,0,0,1-5.586,3.74,17.39,17.39,0,0,1-13.633.01,17.382,17.382,0,0,1-5.576-3.74,17.812,17.812,0,0,1-3.721-5.586,17.327,17.327,0,0,1,0-13.584A17.195,17.195,0,0,1,10.7,1.387,17.107,17.107,0,0,1,17.5,0ZM29.59,26.387A14.766,14.766,0,0,0,32.5,17.5a14.594,14.594,0,0,0-1.191-5.82A14.82,14.82,0,0,0,23.32,3.691a14.813,14.813,0,0,0-11.641,0A14.82,14.82,0,0,0,3.691,11.68,14.594,14.594,0,0,0,2.5,17.5a14.766,14.766,0,0,0,2.91,8.887Q6.7,20,11.387,20A8.441,8.441,0,0,0,17.5,22.5,8.441,8.441,0,0,0,23.613,20Q28.3,20,29.59,26.387ZM25,13.75a7.226,7.226,0,0,0-2.2-5.3,7.226,7.226,0,0,0-5.3-2.2,7.226,7.226,0,0,0-5.3,2.2,7.226,7.226,0,0,0-2.2,5.3,7.226,7.226,0,0,0,2.2,5.3,7.226,7.226,0,0,0,5.3,2.2,7.226,7.226,0,0,0,5.3-2.2A7.226,7.226,0,0,0,25,13.75Z" transform="translate(0 0)"/></svg>